<?xml version="1.0" standalone="no"?>
<!DOCTYPE svg PUBLIC "-//W3C//DTD SVG 20010904//EN"
 "http://www.w3.org/TR/2001/REC-SVG-20010904/DTD/svg10.dtd">
<svg version="1.0" xmlns="http://www.w3.org/2000/svg"
 width="1280.000000pt" height="1280.000000pt" viewBox="0 0 1280.000000 1280.000000"
 preserveAspectRatio="xMidYMid meet">
<metadata>
Created by potrace 1.14, written by Peter Selinger 2001-2017
</metadata>
<g transform="translate(0.000000,1280.000000) scale(0.100000,-0.100000)"
fill="#000000" stroke="none">
<path d="M6135 11674 c-595 -31 -1074 -99 -1560 -224 -1016 -260 -1914 -719
-2695 -1377 -159 -135 -534 -512 -664 -668 -756 -911 -1166 -1938 -1204 -3012
-15 -421 12 -755 94 -1168 l26 -130 86 -130 c114 -174 243 -304 359 -362 159
-80 301 -80 540 -1 171 57 424 185 974 495 932 525 1380 747 1638 812 111 28
228 28 280 1 125 -63 91 -291 -101 -674 -121 -241 -247 -454 -688 -1161 -430
-690 -576 -938 -708 -1200 -69 -139 -105 -246 -122 -364 -36 -246 60 -513 258
-721 77 -80 205 -157 542 -326 800 -401 1636 -634 2600 -724 184 -18 823 -24
1042 -11 1219 74 2346 425 3328 1036 1449 903 2397 2297 2594 3817 38 287 49
716 26 988 -86 1036 -483 1975 -1196 2835 -130 156 -505 533 -664 668 -418
352 -822 618 -1308 861 -827 414 -1722 655 -2697 726 -149 11 -663 20 -780 14z
m4061 -6363 c409 -99 722 -419 810 -826 20 -97 23 -323 5 -410 -92 -446 -425
-779 -858 -861 -119 -22 -354 -15 -465 15 -303 80 -560 290 -693 565 -204 422
-116 923 218 1243 169 161 376 262 602 292 99 14 285 5 381 -18z m-4191 -981
c332 -57 623 -170 877 -340 437 -293 642 -694 525 -1029 -95 -270 -385 -457
-794 -512 -131 -17 -460 -6 -599 20 -885 167 -1529 789 -1378 1331 82 292 389
495 829 549 123 15 400 6 540 -19z"/>
</g>
</svg>
